<svg width="86" height="17" viewBox="0 0 86 17" fill="none" xmlns="http://www.w3.org/2000/svg">
<g clip-path="url(#clip0_1_2)">
<path d="M88.3243 0H-3.48651V18.1486H88.3243V0Z" fill="#1E1E1E"/>
<path d="M21.4 3H7.6C5.61177 3 4 4.63513 4 6.65217V13.3478C4 15.3649 5.61177 17 7.6 17H21.4C23.3882 17 25 15.3649 25 13.3478V6.65217C25 4.63513 23.3882 3 21.4 3Z" fill="#FF0000"/>
<path d="M18 10L12 13V7L18 10Z" fill="white"/>
<path d="M72.0899 3.92063L72.0894 3.72777L73.8762 3.72323L73.8767 3.91608L73.4914 3.95278C73.4167 3.96249 73.3723 3.98165 73.3584 4.01025C73.3445 4.03886 73.3377 4.1365 73.3381 4.30316L73.342 5.92455L73.1739 5.92498C73.0848 5.78712 72.9795 5.67786 72.8578 5.59721C72.7226 5.72137 72.564 5.81939 72.382 5.89128C72.2047 5.96316 71.9992 5.9994 71.7657 5.99999C71.3919 6.00094 71.0741 5.90889 70.812 5.72385C70.5499 5.53404 70.3484 5.27027 70.2074 4.93254C70.0711 4.5948 70.0024 4.20212 70.0013 3.75451L70 3.21881C69.9989 2.78072 70.0657 2.39485 70.2004 2.06118C70.3397 1.72749 70.5423 1.46746 70.8081 1.28107C71.0786 1.09467 71.4053 1.00098 71.7884 1.00001C72.1574 0.99907 72.4613 1.06973 72.6999 1.21197C72.9432 1.34945 73.1164 1.53234 73.2197 1.76064C73.3278 1.98893 73.3634 2.23408 73.3267 2.49607L72.7244 2.6476C72.7747 2.19034 72.7178 1.84049 72.5537 1.59805C72.3896 1.35086 72.1347 1.22769 71.789 1.22857C71.4153 1.22953 71.133 1.36357 70.9421 1.63073C70.7559 1.89786 70.6635 2.3219 70.6649 2.90284L70.6679 4.09567C70.6693 4.6766 70.766 5.10255 70.9583 5.37348C71.1551 5.63964 71.4428 5.77224 71.8211 5.77128C72.0126 5.77079 72.1901 5.73462 72.3534 5.66278C72.5214 5.59093 72.6613 5.47629 72.773 5.31886L72.7705 4.3046C72.7701 4.13794 72.7629 4.04034 72.7488 4.01181C72.7347 3.97851 72.6903 3.95957 72.6155 3.955L72.0899 3.92063ZM78.9992 5.72445L79 5.91016L77.311 5.91445L77.3106 5.72874L77.6958 5.68491C77.7706 5.6752 77.8149 5.65604 77.8288 5.62743C77.8428 5.59883 77.8496 5.50118 77.8491 5.33453L77.8448 3.57742L75.7287 3.5828L75.733 5.33991C75.7334 5.50657 75.7407 5.60417 75.7548 5.63271C75.7688 5.66124 75.8132 5.68017 75.888 5.68951L76.2735 5.73139L76.274 5.9171L74.5853 5.92139L74.5848 5.73568L74.97 5.69184C75.0448 5.68213 75.0891 5.66297 75.1031 5.63436C75.117 5.60575 75.1238 5.50812 75.1233 5.34146L75.1143 1.64154C75.1139 1.47488 75.1067 1.37728 75.0926 1.34874C75.0785 1.32021 75.034 1.30127 74.9593 1.29194L74.5738 1.25721L74.5733 1.06435L76.2621 1.06006L76.2625 1.25291L75.8772 1.28961C75.8025 1.29932 75.7582 1.31848 75.7442 1.34709C75.7303 1.37569 75.7235 1.47332 75.7239 1.63999L75.7281 3.35424L77.8443 3.34885L77.8401 1.63461C77.8397 1.46794 77.8325 1.37034 77.8184 1.34181C77.8043 1.31327 77.7598 1.29434 77.6851 1.28501L77.2996 1.25027L77.2991 1.05742L78.9875 1.05312L78.9883 1.24598L78.603 1.28267C78.5283 1.29238 78.484 1.31154 78.47 1.34015C78.4561 1.36875 78.4493 1.4664 78.4497 1.63306L78.4587 5.33297C78.4591 5.49964 78.4664 5.59724 78.4805 5.62577C78.4946 5.65431 78.539 5.67324 78.6138 5.68258L78.9992 5.72445Z" fill="white"/>
<g clip-path="url(#clip1_1_2)">
<path d="M28.5078 4.38445L29.9052 9.23272L31.3026 4.38445H32.8058L30.6039 11.1457V15.0156H29.2065V11.1457L27 4.38445H28.5078Z" fill="white"/>
<path d="M32.8058 10.9997V10.8464C32.8058 10.2671 32.8699 9.73407 32.9984 9.24729C33.1268 8.75566 33.3137 8.32973 33.5591 7.96952C33.8045 7.60931 34.1066 7.32944 34.4653 7.12985C34.8241 6.9254 35.2357 6.82317 35.7002 6.82317C36.1646 6.82317 36.5781 6.9254 36.9406 7.12985C37.3031 7.32944 37.6071 7.60931 37.8526 7.96952C38.1018 8.32973 38.2906 8.75566 38.4189 9.24729C38.5473 9.73407 38.6116 10.2671 38.6116 10.8464V10.9997C38.6116 11.5741 38.5473 12.1071 38.4189 12.5987C38.2906 13.0855 38.1018 13.5114 37.8526 13.8765C37.6071 14.2367 37.305 14.5167 36.9463 14.7162C36.5875 14.9158 36.1759 15.0156 35.7115 15.0156C35.247 15.0156 34.8335 14.9158 34.471 14.7162C34.1123 14.5167 33.8084 14.2367 33.5591 13.8765C33.3137 13.5114 33.1268 13.0855 32.9984 12.5987C32.8699 12.1071 32.8058 11.5741 32.8058 10.9997ZM34.437 10.8464V10.9997C34.437 11.3307 34.4597 11.6398 34.505 11.927C34.5503 12.2142 34.6221 12.4673 34.7202 12.6864C34.8222 12.9006 34.9543 13.0685 35.1167 13.1902C35.2791 13.3119 35.4774 13.3727 35.7115 13.3727C35.938 13.3727 36.1325 13.3119 36.2949 13.1902C36.4573 13.0685 36.5875 12.9006 36.6857 12.6864C36.7839 12.4673 36.8557 12.2142 36.901 11.927C36.95 11.6398 36.9746 11.3307 36.9746 10.9997V10.8464C36.9746 10.5251 36.95 10.2233 36.901 9.94098C36.8557 9.65379 36.782 9.40066 36.68 9.18158C36.5818 8.95771 36.4516 8.78246 36.2892 8.65589C36.1269 8.52932 35.9304 8.46601 35.7002 8.46601C35.4698 8.46601 35.2735 8.52932 35.1111 8.65589C34.9525 8.78246 34.8222 8.95771 34.7202 9.18158C34.6221 9.40066 34.5503 9.65379 34.505 9.94098C34.4597 10.2233 34.437 10.5251 34.437 10.8464Z" fill="white"/>
<path d="M43.6294 12.9784V6.96922H45.4158V14.8696H43.7349L43.6294 12.9784ZM43.8279 11.3575L44.3552 11.3429C44.3552 11.8686 44.3034 12.3578 44.2001 12.8105C44.0967 13.2583 43.9416 13.6477 43.7349 13.9787C43.5281 14.3049 43.2676 14.5605 42.9533 14.7454C42.6391 14.9255 42.2689 15.0156 41.8431 15.0156C41.5163 15.0156 41.2144 14.9621 40.9374 14.8549C40.6645 14.743 40.4287 14.5702 40.2303 14.3365C40.036 14.098 39.8829 13.7938 39.7712 13.4238C39.6638 13.049 39.61 12.5987 39.61 12.0731V6.96922H41.3964V12.0876C41.3964 12.3213 41.4192 12.5185 41.4647 12.6791C41.5143 12.8397 41.5825 12.9711 41.6694 13.0733C41.7562 13.1756 41.8575 13.2486 41.9733 13.2924C42.0932 13.3362 42.2255 13.3581 42.3703 13.3581C42.7383 13.3581 43.0278 13.2705 43.2386 13.0953C43.4537 12.92 43.6046 12.6815 43.6915 12.3797C43.7825 12.073 43.8279 11.7323 43.8279 11.3575Z" fill="white"/>
<path d="M48.0338 4.38445V15.0156H46.5726V4.38445H48.0338ZM50.2231 4.38445V6.10033H44.4174V4.38445H50.2231Z" fill="white"/>
<path d="M52.5311 12.9784V6.96922H54.0026V14.8696H52.6179L52.5311 12.9784ZM52.6945 11.3575L53.1289 11.3429C53.1289 11.8686 53.0863 12.3578 53.0011 12.8105C52.916 13.2583 52.7883 13.6477 52.6179 13.9787C52.4476 14.3049 52.233 14.5605 51.9741 14.7454C51.7152 14.9255 51.4103 15.0156 51.0594 15.0156C50.7904 15.0156 50.5417 14.9621 50.3135 14.8549C50.0887 14.743 49.8945 14.5702 49.731 14.3365C49.5709 14.098 49.4448 13.7938 49.3528 13.4238C49.2643 13.049 49.22 12.5987 49.22 12.0731V6.96922H50.6916V12.0876C50.6916 12.3213 50.7103 12.5185 50.7478 12.6791C50.7886 12.8397 50.8449 12.9711 50.9164 13.0733C50.9879 13.1756 51.0714 13.2486 51.1668 13.2924C51.2655 13.3362 51.3746 13.3581 51.4938 13.3581C51.797 13.3581 52.0354 13.2705 52.2092 13.0953C52.3863 12.92 52.5106 12.6815 52.5822 12.3797C52.6571 12.073 52.6945 11.7323 52.6945 11.3575Z" fill="white"/>
<path d="M55.0057 4H56.6872V13.1183L56.5179 14.874H55.0057V4ZM60.6864 10.9661V11.1148C60.6864 11.6859 60.6358 12.2098 60.5346 12.6865C60.4373 13.1631 60.2854 13.5761 60.0792 13.9254C59.8729 14.2699 59.616 14.5389 59.3086 14.7324C59.005 14.9212 58.6469 15.0156 58.2343 15.0156C57.849 15.0156 57.5143 14.9212 57.2301 14.7324C56.9498 14.5436 56.7144 14.277 56.5237 13.9324C56.333 13.5879 56.1792 13.1844 56.0625 12.7219C55.9457 12.2593 55.8582 11.7543 55.7998 11.2069V10.8812C55.8582 10.3337 55.9457 9.82875 56.0625 9.3662C56.1792 8.90366 56.333 8.50017 56.5237 8.15563C56.7144 7.81108 56.9498 7.54444 57.2301 7.35563C57.5104 7.16688 57.8412 7.07247 58.2226 7.07247C58.639 7.07247 59.001 7.1692 59.3086 7.36272C59.6199 7.55153 59.8768 7.82056 60.0792 8.16981C60.2854 8.5143 60.4373 8.92493 60.5346 9.40161C60.6358 9.87357 60.6864 10.3951 60.6864 10.9661ZM59.005 11.1148V10.9661C59.005 10.6547 58.9855 10.362 58.9466 10.0883C58.9115 9.80986 58.8492 9.56681 58.7597 9.35911C58.6702 9.14676 58.5476 8.97922 58.3919 8.85651C58.2401 8.7338 58.0436 8.67241 57.8023 8.67241C57.5727 8.67241 57.378 8.71961 57.2184 8.81402C57.0589 8.90842 56.9265 9.04055 56.8214 9.21047C56.7202 9.38039 56.6444 9.58332 56.5937 9.81928C56.5432 10.0505 56.512 10.3054 56.5003 10.5839V11.5113C56.512 11.8841 56.5626 12.2145 56.6521 12.5024C56.7455 12.7856 56.8857 13.0097 57.0725 13.1749C57.2632 13.3354 57.5104 13.4157 57.814 13.4157C58.0513 13.4157 58.2479 13.359 58.4036 13.2457C58.5593 13.1325 58.68 12.972 58.7656 12.7643C58.8551 12.5567 58.9173 12.3136 58.9524 12.0352C58.9874 11.752 59.005 11.4452 59.005 11.1148Z" fill="white"/>
<path d="M63.8332 15.0156C63.3429 15.0156 62.9031 14.9054 62.5138 14.6849C62.1246 14.4589 61.7937 14.1475 61.5213 13.7507C61.2527 13.3538 61.0465 12.8936 60.9024 12.37C60.7584 11.8408 60.6864 11.2786 60.6864 10.6834V10.3527C60.6864 9.67468 60.7545 9.0546 60.8907 8.49242C61.0269 7.93024 61.2216 7.44247 61.4746 7.02903C61.7315 6.61567 62.0429 6.29876 62.4087 6.07827C62.7746 5.85227 63.1872 5.7393 63.6465 5.7393C64.0941 5.7393 64.4911 5.84405 64.8375 6.05349C65.1839 6.26292 65.4738 6.56054 65.7074 6.94635C65.9448 7.33222 66.1239 7.79521 66.2446 8.33533C66.3652 8.87001 66.4255 9.46525 66.4255 10.1212V11.1133H61.4045V9.52587H64.7732V9.344C64.7732 9.01325 64.7304 8.71841 64.6449 8.45936C64.5631 8.1948 64.4385 7.98536 64.2712 7.83099C64.1038 7.67668 63.8898 7.59949 63.6289 7.59949C63.4071 7.59949 63.2164 7.6684 63.0567 7.80621C62.8972 7.94402 62.7668 8.13689 62.6656 8.38495C62.5684 8.63295 62.4944 8.92507 62.4437 9.26131C62.397 9.59199 62.3737 9.9558 62.3737 10.3527V10.6834C62.3737 11.0416 62.4087 11.3723 62.4788 11.6755C62.5528 11.9786 62.6559 12.2404 62.7883 12.4609C62.9245 12.6814 63.0879 12.8522 63.2786 12.9735C63.4733 13.0947 63.6932 13.1553 63.9383 13.1553C64.2419 13.1553 64.5242 13.0727 64.7849 12.9074C65.0496 12.7365 65.2773 12.4802 65.4681 12.1385L66.2854 13.3951C66.153 13.6652 65.9721 13.9242 65.7424 14.1723C65.5166 14.4203 65.2442 14.6242 64.925 14.7841C64.6059 14.9384 64.2419 15.0156 63.8332 15.0156Z" fill="white"/>
</g>
</g>
<defs>
<clipPath id="clip0_1_2">
<rect width="86" height="17" fill="white"/>
</clipPath>
<clipPath id="clip1_1_2">
<rect width="39.4255" height="11.0156" fill="white" transform="translate(27 4)"/>
</clipPath>
</defs>
</svg>
