<svg width="20" height="20" viewBox="0 0 20 20" fill="none" xmlns="http://www.w3.org/2000/svg">
<path d="M9 9.5H9.5V9V5.5H10.5V9V9.5H11H14.5V10.5H11H10.5V11V14.5H9.5V11V10.5H9H5.5V9.5H9ZM0.5 10C0.5 4.75614 4.75614 0.5 10 0.5C15.2439 0.5 19.5 4.75614 19.5 10C19.5 15.2439 15.2439 19.5 10 19.5C4.75614 19.5 0.5 15.2439 0.5 10ZM1.5 10C1.5 14.6861 5.31386 18.5 10 18.5C14.6861 18.5 18.5 14.6861 18.5 10C18.5 5.31386 14.6861 1.5 10 1.5C5.31386 1.5 1.5 5.31386 1.5 10Z" fill="black" stroke="white"/>
</svg>
