<svg width="20" height="20" viewBox="0 0 20 20" fill="none" xmlns="http://www.w3.org/2000/svg">
<path d="M9.74274 7.09541L9.99999 7.24976L10.2572 7.09541L14.1667 4.74976L17.8333 6.94976V10.5502L9.99999 15.2502L2.16666 10.5502V6.94976L5.83332 4.74976L9.74274 7.09541ZM7.49999 9.66667H7.99999V9.16667V8.33333V7.83333H7.49999H6.33332V6.66667V6.16667H5.83332H4.99999H4.49999V6.66667V7.83333H3.33332H2.83332V8.33333V9.16667V9.66667H3.33332H4.49999V10.8333V11.3333H4.99999H5.83332H6.33332V10.8333V9.66667H7.49999ZM11.1667 10C11.1667 10.7345 11.7655 11.3333 12.5 11.3333C13.2345 11.3333 13.8333 10.7345 13.8333 10C13.8333 9.26553 13.2345 8.66667 12.5 8.66667C11.7655 8.66667 11.1667 9.26553 11.1667 10ZM13.6667 8.33333C13.6667 9.06781 14.2655 9.66667 15 9.66667C15.7345 9.66667 16.3333 9.06781 16.3333 8.33333C16.3333 7.59886 15.7345 7 15 7C14.2655 7 13.6667 7.59886 13.6667 8.33333Z" stroke="white"/>
</svg>
