<svg width="20" height="20" viewBox="0 0 20 20" fill="none" xmlns="http://www.w3.org/2000/svg">
<path d="M12.5274 10.5196L12.526 10.5211C12.1742 10.8778 11.9319 11.1608 11.7671 11.5098C11.6046 11.8539 11.5 12.3011 11.5 13V13.5H11H9H8.5V13V12.5C8.5 11.261 9.00716 10.1371 9.81363 9.31929L12.5274 10.5196ZM12.5274 10.5196L13.4255 9.6016C14.0843 8.94178 14.5 8.01692 14.5 7C14.5 4.51386 12.4861 2.5 10 2.5C7.51386 2.5 5.5 4.51386 5.5 7V7.5H6H8H8.5V7C8.5 6.17614 9.17614 5.5 10 5.5C10.8239 5.5 11.5 6.17614 11.5 7C11.5 7.4139 11.3354 7.78499 11.0613 8.05164L11.0612 8.05155L11.0536 8.05929L9.81402 9.31889L12.5274 10.5196ZM11 17.5H11.5V17V15V14.5H11H9H8.5V15V17V17.5H9H11ZM0.5 10C0.5 4.75614 4.75614 0.5 10 0.5C15.2439 0.5 19.5 4.75614 19.5 10C19.5 15.2439 15.2439 19.5 10 19.5C4.75614 19.5 0.5 15.2439 0.5 10Z" stroke="white"/>
</svg>
