<svg width="20" height="20" viewBox="0 0 20 20" fill="none" xmlns="http://www.w3.org/2000/svg">
<path d="M10 20C7.44444 20 5.21741 19.1526 3.31889 17.4578C1.42037 15.763 0.332593 13.6474 0.0555555 11.1111H2.33333C2.59259 13.037 3.44926 14.6296 4.90333 15.8889C6.35741 17.1481 8.0563 17.7778 10 17.7778C12.1667 17.7778 14.0048 17.023 15.5144 15.5133C17.0241 14.0037 17.7785 12.1659 17.7778 10C17.7778 7.83333 17.023 5.99519 15.5133 4.48556C14.0037 2.97593 12.1659 2.22148 10 2.22222C8.72222 2.22222 7.52778 2.51852 6.41667 3.11111C5.30555 3.7037 4.37037 4.51852 3.61111 5.55556H6.66667V7.77778H0V1.11111H2.22222V3.72222C3.16667 2.53704 4.31963 1.62037 5.68111 0.972222C7.04259 0.324074 8.48222 0 10 0C11.3889 0 12.69 0.264074 13.9033 0.792222C15.1167 1.32037 16.1722 2.03296 17.07 2.93C17.9678 3.82852 18.6807 4.88407 19.2089 6.09667C19.737 7.30926 20.0007 8.61037 20 10C20 11.3889 19.7359 12.69 19.2078 13.9033C18.6796 15.1167 17.967 16.1722 17.07 17.07C16.1715 17.9678 15.1159 18.6807 13.9033 19.2089C12.6907 19.737 11.3896 20.0007 10 20ZM13.1111 14.6667L8.88889 10.4444V4.44444H11.1111V9.55556L14.6667 13.1111L13.1111 14.6667Z" fill="white"/>
</svg>
