<svg width="20" height="20" viewBox="0 0 20 20" fill="none" xmlns="http://www.w3.org/2000/svg">
<path d="M9.77866 0.570014L9.77925 0.569587C9.83484 0.529038 9.90783 0.502812 9.98792 0.500147C10.0767 0.497749 10.1592 0.524716 10.2208 0.569634L10.2213 0.570014L18.1173 6.31205C18.9983 6.95291 19.5 7.92051 19.5 8.92849V18.718C19.5 19.1042 19.131 19.5 18.6111 19.5H13.0556C12.5357 19.5 12.1667 19.1042 12.1667 18.718V13.5899C12.1667 13.3825 12.0855 13.1826 11.9284 13.0375C11.7743 12.8953 11.578 12.8335 11.3889 12.8335H8.61111C8.42204 12.8335 8.22573 12.8953 8.07162 13.0375C7.91448 13.1826 7.83333 13.3825 7.83333 13.5899V18.718C7.83333 19.1042 7.4643 19.5 6.94444 19.5H1.38889C0.869034 19.5 0.5 19.1042 0.5 18.718V8.92849C0.5 7.92051 1.00171 6.95291 1.88268 6.31205L9.77866 0.570014ZM10.2941 1.34476L10 1.1309L9.70592 1.34476L2.32528 6.71225L2.32522 6.71229C1.60165 7.23866 1.16667 8.05149 1.16667 8.92849V18.4616V18.9616H1.66667H6.66667H7.16667V18.4616V13.5899C7.16667 12.9209 7.78495 12.295 8.61111 12.295H11.3889C12.2151 12.295 12.8333 12.9209 12.8333 13.5899V18.4616V18.9616H13.3333H18.3333H18.8333V18.4616V8.92849C18.8333 8.05149 18.3983 7.23866 17.6748 6.71229L17.6747 6.71225L10.2941 1.34476Z" fill="black" stroke="white"/>
</svg>
