<svg width="20" height="20" viewBox="0 0 20 20" fill="none" xmlns="http://www.w3.org/2000/svg">
<path d="M1.11111 20H18.8889C19.5 20 20 19.25 20 18.3333C20 17.4167 19.5 16.6667 18.8889 16.6667H1.11111C0.5 16.6667 0 17.4167 0 18.3333C0 19.25 0.5 20 1.11111 20ZM1.11111 11.6667H18.8889C19.5 11.6667 20 10.9167 20 10C20 9.08333 19.5 8.33333 18.8889 8.33333H1.11111C0.5 8.33333 0 9.08333 0 10C0 10.9167 0.5 11.6667 1.11111 11.6667ZM0 1.66667C0 2.58333 0.5 3.33333 1.11111 3.33333H18.8889C19.5 3.33333 20 2.58333 20 1.66667C20 0.75 19.5 0 18.8889 0H1.11111C0.5 0 0 0.75 0 1.66667Z" fill="white"/>
</svg>
