<svg width="3" height="15" viewBox="0 0 3 15" fill="none" xmlns="http://www.w3.org/2000/svg">
<path d="M1.5 3.75C2.325 3.75 3 2.90625 3 1.875C3 0.84375 2.325 0 1.5 0C0.675 0 0 0.84375 0 1.875C0 2.90625 0.675 3.75 1.5 3.75ZM1.5 5.625C0.675 5.625 0 6.46875 0 7.5C0 8.53125 0.675 9.375 1.5 9.375C2.325 9.375 3 8.53125 3 7.5C3 6.46875 2.325 5.625 1.5 5.625ZM1.5 11.25C0.675 11.25 0 12.0937 0 13.125C0 14.1563 0.675 15 1.5 15C2.325 15 3 14.1563 3 13.125C3 12.0937 2.325 11.25 1.5 11.25Z" fill="white"/>
</svg>
