<svg width="10" height="10" viewBox="0 0 10 10" fill="none" xmlns="http://www.w3.org/2000/svg">
<path d="M4.75719 5.32202C4.72713 5.31801 4.68848 5.31801 4.65413 5.32202C3.89832 5.29796 3.2971 4.72062 3.2971 4.01097C3.2971 3.28529 3.92409 2.69592 4.70566 2.69592C5.48293 2.69592 6.1142 3.28529 6.1142 4.01097C6.10991 4.72062 5.51299 5.29796 4.75719 5.32202Z" stroke="#1E4F79" stroke-width="0.5" stroke-linecap="round" stroke-linejoin="round"/>
<path d="M7.60004 7.96819C6.83565 8.6217 5.82219 9.01862 4.70566 9.01862C3.58913 9.01862 2.57567 8.6217 1.81128 7.96819C1.85422 7.59131 2.11188 7.22246 2.57137 6.93379C3.74802 6.2041 5.67188 6.2041 6.83995 6.93379C7.29944 7.22246 7.5571 7.59131 7.60004 7.96819Z" stroke="#1E4F79" stroke-width="0.5" stroke-linecap="round" stroke-linejoin="round"/>
<path d="M4.70566 9.01858C7.07734 9.01858 9 7.22354 9 5.00929C9 2.79502 7.07734 1 4.70566 1C2.33396 1 0.411316 2.79502 0.411316 5.00929C0.411316 7.22354 2.33396 9.01858 4.70566 9.01858Z" stroke="#1E4F79" stroke-width="0.5" stroke-linecap="round" stroke-linejoin="round"/>
</svg>
