<svg width="17" height="18" viewBox="0 0 17 18" fill="none" xmlns="http://www.w3.org/2000/svg">
<path d="M16.0691 17.154L9.8071 10.892C9.3071 11.318 8.73211 11.6477 8.08211 11.881C7.43211 12.1143 6.77877 12.231 6.12211 12.231C4.52077 12.231 3.16544 11.6767 2.05611 10.568C0.946772 9.45866 0.392105 8.10366 0.392105 6.503C0.392105 4.90233 0.946105 3.54666 2.0541 2.436C3.16277 1.32466 4.51744 0.768997 6.11811 0.768997C7.71944 0.768997 9.07544 1.32366 10.1861 2.433C11.2968 3.54233 11.8521 4.898 11.8521 6.5C11.8521 7.19466 11.7291 7.867 11.4831 8.517C11.2364 9.167 10.9131 9.723 10.5131 10.185L16.7751 16.446L16.0681 17.154H16.0691ZM6.12211 11.23C7.44877 11.23 8.5691 10.7733 9.4831 9.86C10.3964 8.94666 10.8531 7.82633 10.8531 6.499C10.8531 5.17233 10.3964 4.05233 9.4831 3.139C8.56977 2.22566 7.44977 1.769 6.1231 1.769C4.79644 1.769 3.6761 2.22566 2.7621 3.139C1.84877 4.05233 1.39211 5.17233 1.39211 6.499C1.39211 7.82566 1.84877 8.94566 2.7621 9.859C3.67544 10.7723 4.79544 11.23 6.12211 11.23Z" fill="white"/>
</svg>
