<svg width="20" height="19" viewBox="0 0 20 19" fill="none" xmlns="http://www.w3.org/2000/svg">
<path d="M9.73745 9.73745C10.5542 8.92074 10.961 7.92882 10.961 6.73C10.961 5.53192 10.5542 4.54031 9.73745 3.72355C8.92069 2.9068 7.92908 2.5 6.731 2.5C5.53297 2.5 4.541 2.90676 3.72355 3.72355C3.72351 3.7236 3.72347 3.72364 3.72342 3.72368M9.73745 9.73745L10.091 10.091C9.177 11.0043 8.05667 11.461 6.73 11.461C5.40333 11.461 4.28333 11.0033 3.37 10.09C2.45667 9.17667 2 8.05667 2 6.73C2 5.40333 2.45667 4.28333 3.37 3.37L3.72342 3.72368M9.73745 9.73745C8.92 10.5542 7.92803 10.961 6.73 10.961C5.5322 10.961 4.5405 10.5534 3.72355 9.73645C2.9068 8.91969 2.5 7.92808 2.5 6.73C2.5 5.53198 2.90675 4.54042 3.72342 3.72368M9.73745 9.73745L3.72342 3.72368M16.677 17.885H17.8841L17.3834 17.3842L17.7368 17.0303L18.0899 16.6767L17.7365 16.3234L11.7889 10.3768C12.0986 9.94817 12.3544 9.4632 12.5585 8.9254L12.5586 8.92498C12.826 8.21846 12.96 7.48616 12.96 6.731C12.96 4.99934 12.354 3.51549 11.1473 2.31023C9.94083 1.10517 8.45685 0.5 6.726 0.5C4.99545 0.5 3.51254 1.10645 2.30802 2.31387L2.62271 2.62781L2.30802 2.31387C1.10441 3.52038 0.5 5.00394 0.5 6.734C0.5 8.46426 1.10523 9.94734 2.31045 11.1526L2.31055 11.1527C3.51583 12.3572 4.99923 12.962 6.73 12.962C7.44718 12.962 8.15756 12.8344 8.85893 12.5826C9.4115 12.3842 9.91747 12.1202 10.3747 11.7898L15.9696 17.3847L15.4701 17.885H16.676H16.677Z" fill="white" stroke="white"/>
</svg>
