<svg width="20" height="20" viewBox="0 0 20 20" fill="none" xmlns="http://www.w3.org/2000/svg">
<path d="M17.1508 10.9113L17.1113 11.1996L17.3425 11.3764L19.4896 13.0181L17.4413 16.4632L17.4411 16.4631L17.435 16.4742C17.4338 16.4762 17.433 16.4772 17.4327 16.4776C17.4325 16.4777 17.4321 16.4779 17.4312 16.4782C17.4281 16.4793 17.4204 16.4807 17.4097 16.4777L14.8618 15.4822L14.6016 15.3806L14.3787 15.5487C13.8874 15.9194 13.3482 16.2298 12.761 16.4622L12.4919 16.5686L12.4502 16.855L12.0649 19.4992C12.0627 19.4997 12.0598 19.5 12.0561 19.5H7.94388C7.9411 19.5 7.93902 19.4998 7.93753 19.4996C7.93561 19.4993 7.93467 19.4989 7.93446 19.4989C7.93396 19.4987 7.93347 19.4985 7.93262 19.4977C7.93163 19.4969 7.92577 19.4916 7.92123 19.4775L7.53911 16.855L7.49738 16.5686L7.2283 16.4622C6.64362 16.2308 6.11374 15.9207 5.60672 15.5459L5.3847 15.3817L5.12753 15.4822L2.5917 16.473C2.58445 16.4745 2.57756 16.4751 2.57136 16.4751C2.56275 16.4751 2.55684 16.4738 2.5537 16.4728L2.54801 16.4632L0.500053 13.0186C0.500074 13.0184 0.500103 13.0181 0.500142 13.0178L2.66634 11.3778L2.90868 11.1943L2.85735 10.8947C2.80986 10.6175 2.78957 10.3033 2.78957 10C2.78957 9.71719 2.82748 9.40462 2.87877 9.10527L2.9301 8.80567L2.68775 8.62219L0.521132 6.98188L2.5593 3.53578L2.55941 3.53585L2.56505 3.5258C2.56695 3.52241 2.5679 3.52193 2.56735 3.52239C2.56703 3.52265 2.56727 3.52231 2.56877 3.52179C2.57194 3.52069 2.57964 3.51934 2.59026 3.52228L5.13824 4.5178L5.39447 4.61791L5.61618 4.45506C6.11461 4.08897 6.6555 3.76872 7.23901 3.53784L7.50809 3.43137L7.54982 3.14501L7.93399 0.508469C7.93492 0.504321 7.936 0.501824 7.93661 0.500604L7.93701 0.500508C7.93827 0.500285 7.94052 0.5 7.94388 0.5H12.0561C12.0627 0.5 12.0669 0.501083 12.0693 0.501948C12.0718 0.50286 12.0733 0.503893 12.0742 0.504596C12.075 0.505287 12.0755 0.505869 12.0757 0.506362C12.0759 0.506608 12.0764 0.507429 12.0768 0.509215L12.4609 3.14501L12.5026 3.43137L12.7717 3.53784C13.3564 3.76919 13.8863 4.07933 14.3933 4.45415L14.6153 4.61828L14.8725 4.5178L17.4083 3.52702C17.4156 3.52553 17.4224 3.52488 17.4286 3.5249C17.4373 3.52492 17.4432 3.52621 17.4463 3.5272L17.452 3.53677L19.4999 6.98138C19.4999 6.98163 19.4999 6.98191 19.4999 6.9822L17.3337 8.62219L17.0913 8.80567L17.1426 9.10527C17.1902 9.38278 17.2104 9.68672 17.2104 10C17.2104 10.3227 17.1903 10.6228 17.1508 10.9113ZM5.64478 10C5.64478 12.3516 7.61662 14.25 10 14.25C12.3834 14.25 14.3552 12.3516 14.3552 10C14.3552 7.64841 12.3834 5.75 10 5.75C7.61662 5.75 5.64478 7.64841 5.64478 10Z" stroke="white"/>
</svg>
