<svg width="21" height="20" viewBox="0 0 21 20" fill="none" xmlns="http://www.w3.org/2000/svg">
<path d="M20.0618 6.77291L13.5667 0.0584843C13.4982 -0.0121724 13.4102 -0.0193061 13.338 0.039801C13.2653 0.0985684 13.22 0.214065 13.22 0.339753V3.0529C10.5449 3.1419 7.37422 4.81966 4.88644 7.47676C1.838 10.7321 0.159332 15.0595 0.159332 19.6603C0.159332 19.8203 0.232443 19.9586 0.334888 19.9925C0.350443 19.998 0.366221 20 0.381554 20C0.467332 20 0.547555 19.9236 0.583999 19.8003C2.32244 13.9194 6.57333 10.906 13.2198 10.8404V13.7686C13.2198 13.8943 13.2651 14.0098 13.3378 14.0686C13.41 14.1273 13.4982 14.1205 13.5664 14.0499L20.0616 7.33545C20.1227 7.27261 20.1593 7.1673 20.1593 7.05452C20.1593 6.94174 20.1227 6.8361 20.0618 6.77291Z" fill="white"/>
</svg>
