<svg width="25" height="25" viewBox="0 0 25 25" fill="none" xmlns="http://www.w3.org/2000/svg">
<path d="M5.26452 15.2027L6.29128 14.7435L5.26241 14.2889C4.67153 14.0279 4.14424 13.7984 3.59436 13.5687C2.096 12.923 1.10038 12.0364 0.848086 10.9503C0.620663 9.94747 0.62868 9.0989 0.985854 8.35963C1.34298 7.62046 2.09252 6.90154 3.53778 6.25318C6.40453 4.97531 9.2949 3.74437 12.1958 2.50893C13.1388 2.10734 14.0829 1.70528 15.0276 1.30098C16.7755 0.558493 18.8219 0.615146 20.4982 1.2421C22.1868 1.87372 23.3874 3.03396 23.6293 4.40047L23.6292 4.40049L23.6315 4.41186C23.9619 6.05525 22.897 7.78651 20.6992 8.67506L20.6992 8.67501L20.6924 8.67789C20.1858 8.89149 19.6564 9.12185 19.0823 9.3852L18.0598 9.85424L19.0931 10.2989C19.3352 10.4031 19.5804 10.5131 19.8218 10.6214C20.1064 10.749 20.3857 10.8743 20.6486 10.985L20.6492 10.9852C22.5325 11.7757 23.507 13.0604 23.6694 14.3113C23.83 15.5482 23.2166 16.9101 21.5869 17.9227C21.0843 18.2268 20.5169 18.4653 19.9124 18.7195C19.7222 18.7994 19.5283 18.8809 19.3316 18.9665C16.0328 20.4002 12.7135 21.8332 9.39471 23.2335C7.95645 23.8107 6.33002 23.8964 4.86762 23.5648C3.40045 23.2322 2.14265 22.4907 1.40016 21.4633C0.706277 20.4998 0.58257 19.4481 0.919754 18.4928C1.25921 17.5312 2.08481 16.6193 3.37785 16.0048C4.01886 15.7572 4.6148 15.4933 5.26452 15.2027ZM20.8427 10.5242C24.8429 12.2031 25.3674 16.1644 21.8482 18.349C21.3106 18.6747 20.6954 18.9331 20.0821 19.1907C19.8976 19.2683 19.7132 19.3457 19.5311 19.4249C16.2303 20.8596 12.9077 22.294 9.58512 23.6959C6.50318 24.9348 2.65567 24.0545 0.994728 21.7559L20.8427 10.5242Z" stroke="white"/>
<path d="M9.10489 15.8714L17.3685 12.3007L9.10489 8.74874V15.8714Z" fill="white"/>
</svg>
