<svg width="24" height="24" viewBox="0 0 24 24" fill="none" xmlns="http://www.w3.org/2000/svg">
<path d="M6 4.5L18 4.5V18H6V4.5Z" fill="#D9D9D9"/>
<path fill-rule="evenodd" clip-rule="evenodd" d="M11.5374 1.12853L3.4374 5.98853C3.30411 6.0684 3.19377 6.18141 3.11712 6.31658C3.04047 6.45174 3.00012 6.60444 3 6.75983V15.641C3.00012 15.7964 3.04047 15.9491 3.11712 16.0843C3.19377 16.2194 3.30411 16.3325 3.4374 16.4123L11.5374 21.2723C11.6772 21.3561 11.8371 21.4003 12 21.4003C12.1629 21.4003 12.3228 21.3561 12.4626 21.2723L20.5626 16.4123C20.6959 16.3325 20.8062 16.2194 20.8829 16.0843C20.9595 15.9491 20.9999 15.7964 21 15.641V6.75983C21 6.60453 20.9598 6.45188 20.8833 6.31673C20.8068 6.18157 20.6966 6.06851 20.5635 5.98853L12.4635 1.12853C12.3235 1.04443 12.1633 1 12 1C11.8367 1 11.6774 1.04443 11.5374 1.12853ZM11.7732 4.51253C11.842 4.47236 11.9203 4.4512 12 4.4512C12.0797 4.4512 12.158 4.47236 12.2268 4.51253L17.6268 7.66253C17.6946 7.7021 17.7509 7.75872 17.79 7.82676C17.8292 7.89481 17.8499 7.97192 17.85 8.05043V14.3504C17.85 14.4291 17.8294 14.5064 17.7903 14.5746C17.7511 14.6428 17.6947 14.6996 17.6268 14.7392L12.2268 17.8892C12.158 17.9294 12.0797 17.9506 12 17.9506C11.9203 17.9506 11.842 17.9294 11.7732 17.8892L6.3732 14.7392C6.30526 14.6996 6.2489 14.6428 6.20974 14.5746C6.17057 14.5064 6.14998 14.4291 6.15 14.3504V8.05043C6.14998 7.97177 6.17057 7.89447 6.20974 7.82625C6.2489 7.75804 6.30526 7.70127 6.3732 7.66163L11.7732 4.51253ZM7.05 8.30783V14.0912L12 16.9784L16.95 14.0912V8.30873L12 5.42243L7.05 8.30783ZM15.15 11.1995L10.2 8.50043V13.9004L15.15 11.1995Z" fill="#FA0E12"/>
</svg>
