<svg width="20" height="21" viewBox="0 0 20 21" fill="none" xmlns="http://www.w3.org/2000/svg">
<path d="M18.0788 9.35419C17.5417 8.15922 17.1403 6.79928 17.6105 5.22426C15.8786 5.71253 14.4723 6.40936 13.616 7.59401L13.3447 7.96938L12.9497 7.7275C11.272 6.70018 10.4049 5.47918 10.1046 4.11686C9.89925 3.18563 9.96738 2.22431 10.1732 1.26859C9.16656 1.96167 8.39898 2.73064 7.87534 3.57811C7.18721 4.6918 6.90082 5.97191 7.08043 7.46262L6.13115 7.73435C5.62428 6.65118 4.65804 5.96466 3.42281 5.41813C3.75683 7.1382 3.10165 8.51289 2.34965 9.66395C2.14601 9.97566 1.93183 10.2764 1.72906 10.5611C1.71094 10.5865 1.69292 10.6118 1.675 10.637C1.45377 10.9478 1.24894 11.2384 1.07172 11.523C0.713036 12.099 0.509045 12.5875 0.509045 13.056V13.3458C0.612398 14.9992 1.59681 16.5312 3.21902 17.6871C4.9346 18.9095 7.33042 19.6813 10 19.6813C12.6696 19.6813 15.0654 18.9095 16.781 17.6871C18.4032 16.5312 19.3876 14.9992 19.491 13.3458V13.056C19.491 12.513 19.3143 11.9549 19.0368 11.3328C18.8987 11.0233 18.7412 10.7096 18.5749 10.3786L18.5724 10.3735C18.4086 10.0475 18.2368 9.70563 18.0788 9.35419Z" stroke="white"/>
<path d="M16.0816 15.848C16.0816 18.2411 13.3589 20.1813 9.99999 20.1813C6.64108 20.1813 3.9184 18.2411 3.9184 15.848H3.9237C3.9237 14.2711 5.97055 12.824 4.86713 10.6431C6.19291 10.9484 7.36557 11.4051 8.04733 12.3482C9.97504 11.1678 7.85989 9.5231 9.40119 8.01821C9.0603 9.5231 12.3113 10.5418 12.0774 12.4827C12.5162 11.5451 13.4378 11.0642 14.4704 10.6878C13.4942 13.1107 16.0763 14.3604 16.0763 15.8478L16.0816 15.848Z" fill="white"/>
</svg>
