<svg width="20" height="20" viewBox="0 0 20 20" fill="none" xmlns="http://www.w3.org/2000/svg">
<path d="M10 12.6316C12.3714 12.6316 14.2714 11.2211 14.2714 9.47368L14.2857 3.15789C14.2857 1.41053 12.3714 0 10 0C7.62857 0 5.71429 1.41053 5.71429 3.15789V9.47368C5.71429 11.2211 7.62857 12.6316 10 12.6316ZM17.5714 9.47368C17.5714 12.6316 13.9429 14.8421 10 14.8421C6.05714 14.8421 2.42857 12.6316 2.42857 9.47368H0C0 13.0737 3.88571 16.0316 8.57143 16.5474V20H11.4286V16.5474C16.1143 16.0421 20 13.0737 20 9.47368H17.5714Z" fill="white"/>
</svg>
