<svg width="33" height="34" viewBox="0 0 33 34" fill="none" xmlns="http://www.w3.org/2000/svg">
<path d="M17.0157 18.9273C17.0695 18.9344 17.1238 18.9371 17.178 18.9354C19.9357 18.8486 22.2349 16.7434 22.2516 14.018L22.2516 14.018V14.0119C22.2516 11.2144 19.8181 9.07595 16.9906 9.07595C14.1482 9.07595 11.7297 11.2163 11.7297 14.0119C11.7297 16.7473 14.0514 18.8488 16.8033 18.9354C16.8521 18.937 16.901 18.9349 16.9495 18.9293C16.9608 18.928 16.9776 18.9269 16.9955 18.9269C17.0039 18.9269 17.0106 18.9272 17.0151 18.9274C17.0198 18.9277 17.0199 18.9279 17.0157 18.9273Z" stroke="white" stroke-width="2" stroke-linecap="round" stroke-linejoin="round"/>
<path d="M26.3922 26.6195C26.6476 26.4034 26.778 26.074 26.7398 25.7416C26.5643 24.2177 25.5328 22.8791 23.9749 21.9107L23.9728 21.9094C22.0113 20.697 19.4791 20.122 17.0004 20.122C14.5214 20.122 11.9842 20.6971 10.0113 21.9077L10.0113 21.9077L10.0064 21.9107C8.44855 22.8791 7.41704 24.2177 7.24153 25.7416C7.20325 26.074 7.33371 26.4034 7.58914 26.6195C10.0818 28.728 13.3763 30 16.9906 30C20.605 30 23.8995 28.728 26.3922 26.6195Z" stroke="white" stroke-width="2" stroke-linecap="round" stroke-linejoin="round"/>
<path d="M16.9906 29.9999C24.6412 29.9999 30.9813 24.2528 30.9813 16.9999C30.9813 9.74705 24.6412 4 16.9906 4C9.34 4 3 9.74706 3 16.9999C3 24.2528 9.33999 29.9999 16.9906 29.9999Z" stroke="white" stroke-width="2" stroke-linecap="round" stroke-linejoin="round"/>
</svg>
