<svg width="90" height="20" viewBox="0 0 90 20" fill="none" xmlns="http://www.w3.org/2000/svg">
<g clip-path="url(#clip0_51_38)">
<path d="M28.1056 3.09138C27.9408 2.49382 27.6192 1.94906 27.1729 1.51134C26.7266 1.07362 26.1712 0.758223 25.5619 0.596552C23.3314 0 14.3553 0 14.3553 0C14.3553 0 5.37889 0.0181035 3.14875 0.614655C2.53955 0.776353 1.98416 1.09177 1.53789 1.52948C1.09162 1.9672 0.770052 2.51195 0.605196 3.10948C-0.0694529 6.99655 -0.331191 12.9191 0.623653 16.6505C0.788509 17.248 1.11008 17.7928 1.55635 18.2305C2.00261 18.6682 2.558 18.9836 3.16721 19.1453C5.39752 19.7419 14.3738 19.7419 14.3738 19.7419C14.3738 19.7419 23.3501 19.7419 25.5804 19.1453C26.1896 18.9836 26.745 18.6682 27.1912 18.2305C27.6375 17.7928 27.9591 17.248 28.1239 16.6505C28.8353 12.7581 29.0547 6.83914 28.1055 3.09155L28.1056 3.09138Z" fill="#FF0000"/>
<path d="M11.4984 14.1014L18.9448 9.87103L11.4984 5.64052V14.1014Z" fill="white"/>
<path d="M86.3503 5.73103C87.3271 5.73103 88.0643 5.91172 88.5804 6.25517C89.0965 6.59879 89.4653 7.14103 89.6864 7.88241C89.9075 8.62362 89.9996 9.63586 89.9996 10.9376V13.0529H85.2627V13.7036L85.3365 15.4934C85.3917 15.8912 85.484 16.1805 85.6313 16.3612C85.779 16.5421 86.0184 16.6324 86.3318 16.6324C86.7558 16.6324 87.0507 16.4698 87.198 16.1445C87.364 15.819 87.4376 15.2766 87.4561 14.5353L89.9075 14.68C89.926 14.7884 89.926 14.9331 89.926 15.1138C89.926 16.2528 89.6126 17.1026 88.9675 17.6629C88.3224 18.2233 87.4376 18.5126 86.2764 18.5126C84.8756 18.5126 83.8988 18.0788 83.3458 17.2291C82.793 16.3793 82.498 15.0414 82.498 13.2517V11.0641C82.5606 7.99086 83.1117 5.74 86.3503 5.73103ZM52.2698 5.96603V15.0234C52.2698 15.5659 52.325 15.9636 52.454 16.1986C52.7157 16.7012 53.3941 16.5728 53.7627 16.3252C53.9755 16.1841 54.147 15.9909 54.2603 15.7648V5.96586H57.0804V18.3136H54.8685L54.629 16.795H54.5737C53.9655 17.934 53.0622 18.5124 51.8643 18.5124C50.0203 18.5079 49.5691 17.2048 49.4617 15.8814L49.4547 15.7881C49.4414 15.5877 49.4336 15.3869 49.4313 15.186V5.96603H52.2698ZM66.8125 5.96603V15.0234C66.8125 15.5659 66.8677 15.9636 66.9967 16.1986C67.2587 16.7012 67.9368 16.5728 68.3054 16.3252C68.5182 16.1841 68.6898 15.9909 68.8031 15.7648V5.96586H71.6231V18.3136H69.4113L69.1717 16.795H69.1165C68.5083 17.934 67.6049 18.5124 66.407 18.5124C64.5631 18.5079 64.1118 17.2048 64.0044 15.8814L63.9974 15.7881C63.9841 15.5877 63.9763 15.3869 63.974 15.186V5.96603H66.8125ZM44.0859 5.73103C45.0076 5.73103 45.7632 5.91172 46.3163 6.29138C46.8691 6.67103 47.2931 7.24965 47.5511 8.045C47.8092 8.84052 47.9382 9.90707 47.9382 11.2269V13.0166C47.9382 14.3364 47.8092 15.385 47.5511 16.1803C47.2931 16.976 46.8875 17.5545 46.3163 17.9341C45.745 18.2957 44.9706 18.4945 44.0123 18.4945C43.0168 18.5126 42.2427 18.3138 41.6714 17.9522C41.1001 17.5726 40.6944 16.994 40.455 16.1986C40.2152 15.4031 40.1047 14.3545 40.1047 13.0348V11.2448C40.1047 9.925 40.2337 8.84034 40.5102 8.04483C40.7867 7.23138 41.2105 6.65276 41.8004 6.29138C42.3902 5.92965 43.1459 5.73103 44.0859 5.73103ZM76.0468 0.777412V7.28569H76.0653C76.3233 6.81569 76.655 6.43603 77.1159 6.14672C77.5463 5.86288 78.0533 5.71181 78.5719 5.71293C79.254 5.71293 79.7701 5.89362 80.1571 6.23707C80.5442 6.59879 80.8207 7.15914 80.9865 7.93655C81.1473 8.68965 81.2387 9.73121 81.2443 11.0447L81.2445 11.1728V13.1252C81.2445 14.951 81.0049 16.3071 80.5625 17.1748C80.1019 18.0426 79.4014 18.4766 78.4429 18.4766C77.9085 18.4766 77.4292 18.35 76.9869 18.115C76.5957 17.8914 76.2714 17.5708 76.0465 17.1853L76.0099 17.1205H75.9547L75.6598 18.2957H73.3189V0.777585L76.0468 0.777412ZM64.7664 1.41017V3.65172H61.9648V18.3136H59.2001V3.6519H56.3801V1.41034L64.7664 1.41017ZM34.3723 1.41017L34.374 1.41707C34.4009 1.53448 34.7736 3.15948 35.1835 5.05276L35.2158 5.20276L35.2647 5.42948L35.2974 5.58172L35.3138 5.6581L35.3464 5.81121L35.3628 5.88793L35.3953 6.04155L35.4428 6.26621C35.7196 7.57724 35.9838 8.89207 36.1419 9.83483H36.2157C36.367 8.98914 36.5869 7.9069 36.8214 6.8019L36.883 6.51327C36.9139 6.36879 36.9448 6.22431 36.9761 6.08017L37.0243 5.85655C37.3427 4.39221 37.6707 2.92988 38.0081 1.46965L38.0134 1.44638L38.0218 1.41017H40.8419L37.5794 12.8179V18.2957H34.7963V12.8359H34.7778L31.5522 1.41L34.3723 1.41017ZM44.0306 7.64724C43.6435 7.64724 43.3855 7.84621 43.2197 8.26207C43.0538 8.67776 42.9801 9.31052 42.9801 10.1966V14.0472C42.9801 14.9512 43.0538 15.62 43.2012 16.0179C43.3487 16.4155 43.6252 16.6145 44.0306 16.6145C44.4176 16.6145 44.6941 16.4155 44.8601 16.0179C45.026 15.62 45.0997 14.9512 45.0997 14.0472V10.1964C45.0997 9.31052 45.0258 8.65965 44.8601 8.2619C44.6941 7.84621 44.4176 7.64724 44.0306 7.64724ZM76.5445 8.00896C76.3198 8.21241 76.16 8.46327 76.0649 8.7769L76.0468 8.84052V15.855C76.2754 16.2347 76.5998 16.4878 77.1711 16.5059C77.4661 16.5059 77.7055 16.3974 77.8901 16.1805C78.0743 15.9636 78.2033 15.6019 78.277 15.0957C78.3478 14.6098 78.3847 13.9405 78.3875 13.0881V11.3716C78.3875 10.3953 78.3506 9.65414 78.2954 9.12983C78.2216 8.60552 78.1297 8.22586 77.9637 8.00896C77.6429 7.5569 76.95 7.56241 76.5445 8.00896ZM86.2951 7.5931C85.9816 7.61121 85.7603 7.70155 85.6313 7.86431C85.484 8.045 85.3917 8.31621 85.3365 8.71396C85.2822 9.10362 85.2636 10.4657 85.2627 10.5202V11.4078H87.3271V10.625V10.64C87.3258 10.9136 87.32 10.4812 87.3074 9.95034L87.3056 9.87896C87.294 9.41241 87.2771 8.89224 87.2534 8.71396C87.198 8.2981 87.1058 8.00879 86.9585 7.84621C86.811 7.68345 86.59 7.5931 86.2951 7.5931Z" fill="white"/>
</g>
<defs>
<clipPath id="clip0_51_38">
<rect width="90" height="20" fill="white"/>
</clipPath>
</defs>
</svg>
