<svg width="107" height="24" viewBox="0 0 107 24" fill="none" xmlns="http://www.w3.org/2000/svg">
<path d="M29.1056 7.09138C28.9408 6.49382 28.6192 5.94906 28.1729 5.51134C27.7266 5.07362 27.1712 4.75822 26.5619 4.59655C24.3314 4 15.3553 4 15.3553 4C15.3553 4 6.37889 4.0181 4.14875 4.61466C3.53955 4.77635 2.98416 5.09177 2.53789 5.52948C2.09162 5.9672 1.77005 6.51195 1.6052 7.10948C0.930547 10.9966 0.668809 16.9191 1.62365 20.6505C1.78851 21.248 2.11008 21.7928 2.55635 22.2305C3.00261 22.6682 3.558 22.9836 4.16721 23.1453C6.39752 23.7419 15.3738 23.7419 15.3738 23.7419C15.3738 23.7419 24.3501 23.7419 26.5804 23.1453C27.1896 22.9836 27.745 22.6682 28.1912 22.2305C28.6375 21.7928 28.9591 21.248 29.1239 20.6505C29.8353 16.7581 30.0547 10.8391 29.1055 7.09155L29.1056 7.09138Z" fill="#FF0000"/>
<path d="M12.4984 18.1014L19.9448 13.871L12.4984 9.64052V18.1014Z" fill="white"/>
<path d="M87.3503 9.73103C88.3271 9.73103 89.0643 9.91172 89.5804 10.2552C90.0965 10.5988 90.4653 11.141 90.6864 11.8824C90.9075 12.6236 90.9996 13.6359 90.9996 14.9376V17.0529H86.2627V17.7036L86.3365 19.4934C86.3917 19.8912 86.484 20.1805 86.6313 20.3612C86.779 20.5421 87.0184 20.6324 87.3318 20.6324C87.7558 20.6324 88.0507 20.4698 88.198 20.1445C88.364 19.819 88.4376 19.2766 88.4561 18.5353L90.9075 18.68C90.926 18.7884 90.926 18.9331 90.926 19.1138C90.926 20.2528 90.6126 21.1026 89.9675 21.6629C89.3224 22.2233 88.4376 22.5126 87.2764 22.5126C85.8756 22.5126 84.8988 22.0788 84.3458 21.2291C83.793 20.3793 83.498 19.0414 83.498 17.2517V15.0641C83.5606 11.9909 84.1117 9.74 87.3503 9.73103ZM53.2698 9.96603V19.0234C53.2698 19.5659 53.325 19.9636 53.454 20.1986C53.7157 20.7012 54.3941 20.5728 54.7627 20.3252C54.9755 20.1841 55.147 19.9909 55.2603 19.7648V9.96586H58.0804V22.3136H55.8685L55.629 20.795H55.5737C54.9655 21.934 54.0622 22.5124 52.8643 22.5124C51.0203 22.5079 50.5691 21.2048 50.4617 19.8814L50.4547 19.7881C50.4414 19.5877 50.4336 19.3869 50.4313 19.186V9.96603H53.2698ZM67.8125 9.96603V19.0234C67.8125 19.5659 67.8677 19.9636 67.9967 20.1986C68.2587 20.7012 68.9368 20.5728 69.3054 20.3252C69.5182 20.1841 69.6898 19.9909 69.8031 19.7648V9.96586H72.6231V22.3136H70.4113L70.1717 20.795H70.1165C69.5083 21.934 68.6049 22.5124 67.407 22.5124C65.5631 22.5079 65.1118 21.2048 65.0044 19.8814L64.9974 19.7881C64.9841 19.5877 64.9763 19.3869 64.974 19.186V9.96603H67.8125ZM45.0859 9.73103C46.0076 9.73103 46.7632 9.91172 47.3163 10.2914C47.8691 10.671 48.2931 11.2497 48.5511 12.045C48.8092 12.8405 48.9382 13.9071 48.9382 15.2269V17.0166C48.9382 18.3364 48.8092 19.385 48.5511 20.1803C48.2931 20.976 47.8875 21.5545 47.3163 21.9341C46.745 22.2957 45.9706 22.4945 45.0123 22.4945C44.0168 22.5126 43.2427 22.3138 42.6714 21.9522C42.1001 21.5726 41.6944 20.994 41.455 20.1986C41.2152 19.4031 41.1047 18.3545 41.1047 17.0348V15.2448C41.1047 13.925 41.2337 12.8403 41.5102 12.0448C41.7867 11.2314 42.2105 10.6528 42.8004 10.2914C43.3902 9.92965 44.1459 9.73103 45.0859 9.73103ZM77.0468 4.77741V11.2857H77.0653C77.3233 10.8157 77.655 10.436 78.1159 10.1467C78.5463 9.86288 79.0533 9.71181 79.5719 9.71293C80.254 9.71293 80.7701 9.89362 81.1571 10.2371C81.5442 10.5988 81.8207 11.1591 81.9865 11.9366C82.1473 12.6897 82.2387 13.7312 82.2443 15.0447L82.2445 15.1728V17.1252C82.2445 18.951 82.0049 20.3071 81.5625 21.1748C81.1019 22.0426 80.4014 22.4766 79.4429 22.4766C78.9085 22.4766 78.4292 22.35 77.9869 22.115C77.5957 21.8914 77.2714 21.5708 77.0465 21.1853L77.0099 21.1205H76.9547L76.6598 22.2957H74.3189V4.77758L77.0468 4.77741ZM65.7664 5.41017V7.65172H62.9648V22.3136H60.2001V7.6519H57.3801V5.41034L65.7664 5.41017ZM35.3723 5.41017L35.374 5.41707C35.4009 5.53448 35.7736 7.15948 36.1835 9.05276L36.2158 9.20276L36.2647 9.42948L36.2974 9.58172L36.3138 9.6581L36.3464 9.81121L36.3628 9.88793L36.3953 10.0416L36.4428 10.2662C36.7196 11.5772 36.9838 12.8921 37.1419 13.8348H37.2157C37.367 12.9891 37.5869 11.9069 37.8214 10.8019L37.883 10.5133C37.9139 10.3688 37.9448 10.2243 37.9761 10.0802L38.0243 9.85655C38.3427 8.39221 38.6707 6.92988 39.0081 5.46965L39.0134 5.44638L39.0218 5.41017H41.8419L38.5794 16.8179V22.2957H35.7963V16.8359H35.7778L32.5522 5.41L35.3723 5.41017ZM45.0306 11.6472C44.6435 11.6472 44.3855 11.8462 44.2197 12.2621C44.0538 12.6778 43.9801 13.3105 43.9801 14.1966V18.0472C43.9801 18.9512 44.0538 19.62 44.2012 20.0179C44.3487 20.4155 44.6252 20.6145 45.0306 20.6145C45.4176 20.6145 45.6941 20.4155 45.8601 20.0179C46.026 19.62 46.0997 18.9512 46.0997 18.0472V14.1964C46.0997 13.3105 46.0258 12.6597 45.8601 12.2619C45.6941 11.8462 45.4176 11.6472 45.0306 11.6472ZM77.5445 12.009C77.3198 12.2124 77.16 12.4633 77.0649 12.7769L77.0468 12.8405V19.855C77.2754 20.2347 77.5998 20.4878 78.1711 20.5059C78.4661 20.5059 78.7055 20.3974 78.8901 20.1805C79.0743 19.9636 79.2033 19.6019 79.277 19.0957C79.3478 18.6098 79.3847 17.9405 79.3875 17.0881V15.3716C79.3875 14.3953 79.3506 13.6541 79.2954 13.1298C79.2216 12.6055 79.1297 12.2259 78.9637 12.009C78.6429 11.5569 77.95 11.5624 77.5445 12.009ZM87.2951 11.5931C86.9816 11.6112 86.7603 11.7016 86.6313 11.8643C86.484 12.045 86.3917 12.3162 86.3365 12.714C86.2822 13.1036 86.2636 14.4657 86.2627 14.5202V15.4078H88.3271V14.625V14.64C88.3258 14.9136 88.32 14.4812 88.3074 13.9503L88.3056 13.879C88.294 13.4124 88.2771 12.8922 88.2534 12.714C88.198 12.2981 88.1058 12.0088 87.9585 11.8462C87.811 11.6834 87.59 11.5931 87.2951 11.5931Z" fill="white"/>
<path d="M95.2392 4.86539L95.2383 4.61015L98.0083 4.60413L98.0091 4.85937L97.4114 4.90794C97.2962 4.92079 97.2269 4.94615 97.206 4.98401C97.1843 5.02187 97.1734 5.15109 97.1743 5.37166L97.1801 7.51754L96.9197 7.5181C96.7819 7.33565 96.6183 7.19104 96.4296 7.08432C96.2201 7.24863 95.9746 7.37836 95.6925 7.4735C95.4178 7.56864 95.0989 7.6166 94.7366 7.61738C94.1581 7.61863 93.6647 7.49681 93.2589 7.25191C92.8524 7.00071 92.5402 6.65161 92.3214 6.20464C92.1102 5.75764 92.0042 5.23794 92.0025 4.64554L92 3.93654C91.9984 3.35675 92.1019 2.84605 92.3106 2.40445C92.5268 1.96282 92.8407 1.61867 93.2531 1.372C93.6722 1.1253 94.1781 1.0013 94.7725 1.00001C95.3443 0.998772 95.8152 1.09228 96.185 1.28054C96.5624 1.46249 96.8303 1.70454 96.9906 2.0067C97.1584 2.30883 97.2135 2.63328 97.1568 2.98002L96.2226 3.18057C96.3011 2.57539 96.2126 2.11237 95.9579 1.79151C95.7041 1.46435 95.3093 1.30135 94.7733 1.30252C94.194 1.30378 93.7565 1.48118 93.4601 1.83475C93.1721 2.1883 93.0285 2.7495 93.031 3.51836L93.0352 5.09706C93.0377 5.86591 93.1871 6.42964 93.4852 6.78821C93.7907 7.14047 94.2365 7.31596 94.8226 7.31469C95.1198 7.31404 95.3944 7.26617 95.6482 7.1711C95.9087 7.076 96.1249 6.92427 96.2986 6.71592L96.2944 5.37357C96.2935 5.153 96.2827 5.02382 96.261 4.98606C96.2384 4.94199 96.17 4.91693 96.0539 4.91088L95.2392 4.86539ZM105.949 7.25271L105.95 7.49849L103.332 7.50418L103.331 7.25839L103.929 7.20038C104.044 7.18752 104.113 7.16217 104.135 7.1243C104.157 7.08645 104.167 6.95722 104.166 6.73666L104.159 4.41116L100.879 4.41828L100.886 6.74378C100.887 6.96435 100.898 7.09352 100.92 7.13129C100.942 7.16905 101.01 7.19411 101.126 7.20646L101.724 7.26189L101.725 7.50767L99.1069 7.51336V7.26757L99.7038 7.20955C99.8199 7.19669 99.8883 7.17134 99.91 7.13348C99.9317 7.09562 99.9417 6.9664 99.9409 6.74583L99.9275 1.84907C99.9267 1.62849 99.915 1.49932 99.8933 1.46155C99.8716 1.42379 99.8032 1.39873 99.6871 1.38638L99.0894 1.34041L99.0885 1.08517L101.707 1.07949L101.707 1.33472L101.11 1.38329C100.994 1.39614 100.925 1.4215 100.903 1.45937C100.882 1.49722 100.872 1.62644 100.873 1.84701L100.878 4.11579L104.158 4.10866L104.153 1.83989C104.152 1.61931 104.14 1.49014 104.118 1.45238C104.097 1.41461 104.027 1.38956 103.912 1.37721L103.314 1.33123L103.314 1.076L105.931 1.07031L105.932 1.32555L105.335 1.37411C105.219 1.38696 105.15 1.41232 105.129 1.45019C105.107 1.48804 105.097 1.61727 105.097 1.83784L105.111 6.7346C105.112 6.95517 105.123 7.08435 105.144 7.12211C105.167 7.15988 105.235 7.18494 105.351 7.19729L105.949 7.25271Z" fill="#8D9384"/>
</svg>
