<svg width="146" height="29" viewBox="0 0 146 29" fill="none" xmlns="http://www.w3.org/2000/svg">
<rect width="146" height="29" fill="#1E1E1E"/>
<g clip-path="url(#clip0_0_1)">
<path d="M146 0H0V28.3597H146V0Z" fill="#1E1E1E"/>
<path d="M39.7714 6H8.22857C3.68406 6 0 8.4527 0 11.4783V21.5217C0 24.5473 3.68406 27 8.22857 27H39.7714C44.3159 27 48 24.5473 48 21.5217V11.4783C48 8.4527 44.3159 6 39.7714 6Z" fill="#FF0000"/>
<path d="M31.6535 16.5L19.2673 21V12L31.6535 16.5Z" fill="white"/>
<path d="M129.923 4.91575L129.922 4.66051L133.24 4.65449L133.241 4.90973L132.525 4.9583C132.387 4.97115 132.304 4.99651 132.279 5.03437C132.253 5.07223 132.24 5.20145 132.241 5.42202L132.248 7.5679L131.936 7.56846C131.771 7.38601 131.575 7.2414 131.349 7.13468C131.098 7.29899 130.804 7.42872 130.466 7.52386C130.137 7.619 129.755 7.66696 129.321 7.66774C128.628 7.66899 128.037 7.54717 127.551 7.30227C127.064 7.05107 126.69 6.70197 126.428 6.255C126.175 5.808 126.048 5.2883 126.046 4.6959L126.043 3.9869C126.041 3.40711 126.165 2.89641 126.415 2.45481C126.674 2.01318 127.05 1.66903 127.544 1.42236C128.046 1.17566 128.652 1.05166 129.364 1.05037C130.049 1.04913 130.613 1.14264 131.056 1.3309C131.508 1.51285 131.829 1.7549 132.021 2.05706C132.222 2.35919 132.288 2.68364 132.22 3.03038L131.101 3.23093C131.195 2.62575 131.089 2.16273 130.784 1.84187C130.48 1.51471 130.007 1.35171 129.365 1.35288C128.671 1.35414 128.147 1.53154 127.792 1.88511C127.447 2.23866 127.275 2.79986 127.278 3.56872L127.283 5.14742C127.286 5.91627 127.465 6.48 127.822 6.83857C128.188 7.19083 128.722 7.36632 129.424 7.36505C129.78 7.3644 130.109 7.31653 130.413 7.22146C130.725 7.12636 130.984 6.97463 131.192 6.76628L131.187 5.42393C131.186 5.20336 131.173 5.07418 131.147 5.03642C131.12 4.99235 131.038 4.96729 130.899 4.96124L129.923 4.91575ZM142.752 7.30307L142.753 7.54885L139.617 7.55454L139.616 7.30875L140.332 7.25074C140.47 7.23788 140.553 7.21253 140.579 7.17466C140.605 7.13681 140.617 7.00758 140.616 6.78702L140.608 4.46152L136.679 4.46864L136.687 6.79414C136.688 7.01471 136.702 7.14388 136.728 7.18165C136.754 7.21941 136.836 7.24447 136.975 7.25682L137.691 7.31225L137.692 7.55803L134.556 7.56372L134.556 7.31793L135.271 7.25991C135.41 7.24705 135.492 7.2217 135.518 7.18384C135.544 7.14598 135.556 7.01676 135.555 6.79619L135.539 1.89943C135.538 1.67885 135.524 1.54968 135.498 1.51191C135.472 1.47415 135.39 1.44909 135.251 1.43674L134.535 1.39077L134.534 1.13553L137.67 1.12985L137.671 1.38508L136.955 1.43365C136.816 1.4465 136.734 1.47186 136.708 1.50973C136.682 1.54758 136.67 1.6768 136.671 1.89737L136.678 4.16615L140.607 4.15902L140.6 1.89025C140.599 1.66967 140.585 1.5405 140.559 1.50274C140.533 1.46497 140.45 1.43992 140.312 1.42757L139.596 1.38159L139.595 1.12636L142.73 1.12067L142.731 1.37591L142.016 1.42447C141.877 1.43732 141.795 1.46268 141.769 1.50055C141.743 1.5384 141.731 1.66763 141.731 1.8882L141.748 6.78496C141.749 7.00553 141.762 7.13471 141.788 7.17247C141.815 7.21024 141.897 7.2353 142.036 7.24765L142.752 7.30307Z" fill="#8D9384"/>
<g clip-path="url(#clip1_0_1)">
<path d="M55.8242 7.17738L58.2882 15.9462L60.7523 7.17738H63.4028L59.5203 19.4062V26.4055H57.0563V19.4062L53.1656 7.17738H55.8242Z" fill="white"/>
<path d="M62.3883 19.4062V19.1289C62.3883 18.0812 62.5015 17.1172 62.7279 16.2367C62.9543 15.3476 63.2839 14.5772 63.7167 13.9257C64.1493 13.2742 64.6821 12.768 65.3145 12.407C65.9472 12.0372 66.6729 11.8524 67.4919 11.8524C68.3108 11.8524 69.0399 12.0372 69.6791 12.407C70.3184 12.768 70.8543 13.2742 71.2872 13.9257C71.7266 14.5772 72.0596 15.3476 72.2858 16.2367C72.5122 17.1172 72.6255 18.0812 72.6255 19.1289V19.4062C72.6255 20.4451 72.5122 21.4092 72.2858 22.2984C72.0596 23.1788 71.7266 23.9491 71.2872 24.6094C70.8543 25.2609 70.3216 25.7672 69.6892 26.1282C69.0565 26.4891 68.3308 26.6696 67.5119 26.6696C66.6929 26.6696 65.9638 26.4891 65.3245 26.1282C64.6921 25.7672 64.1561 25.2609 63.7167 24.6094C63.2839 23.9491 62.9543 23.1788 62.7279 22.2984C62.5015 21.4092 62.3883 20.4451 62.3883 19.4062ZM65.2647 19.1289V19.4062C65.2647 20.0049 65.3047 20.564 65.3846 21.0834C65.4645 21.6028 65.591 22.0607 65.764 22.4569C65.9438 22.8442 66.1768 23.148 66.4631 23.3681C66.7494 23.5881 67.0991 23.6982 67.5119 23.6982C67.9114 23.6982 68.2543 23.5881 68.5406 23.3681C68.8269 23.148 69.0565 22.8442 69.2297 22.4569C69.4029 22.0607 69.5294 21.6028 69.6093 21.0834C69.6958 20.564 69.739 20.0049 69.739 19.4062V19.1289C69.739 18.5479 69.6958 18.002 69.6093 17.4914C69.5294 16.972 69.3995 16.5141 69.2197 16.1179C69.0465 15.713 68.8169 15.396 68.5306 15.1671C68.2443 14.9382 67.8979 14.8237 67.4919 14.8237C67.0857 14.8237 66.7396 14.9382 66.4533 15.1671C66.1736 15.396 65.9438 15.713 65.764 16.1179C65.591 16.5141 65.4645 16.972 65.3846 17.4914C65.3047 18.002 65.2647 18.5479 65.2647 19.1289Z" fill="white"/>
<path d="M81.4955 22.9851V12.1165H84.6453V26.4055H81.6814L81.4955 22.9851ZM81.8454 20.0534L82.7752 20.0269C82.7752 20.9778 82.684 21.8625 82.5018 22.6814C82.3194 23.4913 82.046 24.1956 81.6814 24.7943C81.3168 25.3842 80.8575 25.8465 80.3033 26.181C79.7493 26.5068 79.0966 26.6696 78.3457 26.6696C77.7695 26.6696 77.2372 26.5728 76.7487 26.379C76.2675 26.1766 75.8518 25.864 75.5019 25.4415C75.1592 25.0101 74.8894 24.4598 74.6925 23.7907C74.5031 23.1127 74.4081 22.2984 74.4081 21.3476V12.1165H77.5582V21.3739C77.5582 21.7965 77.5983 22.1532 77.6785 22.4437C77.766 22.7342 77.8862 22.9719 78.0394 23.1568C78.1924 23.3417 78.3711 23.4737 78.5752 23.553C78.7868 23.6322 79.0201 23.6718 79.2753 23.6718C79.9242 23.6718 80.4346 23.5133 80.8064 23.1964C81.1857 22.8795 81.4517 22.448 81.6049 21.9022C81.7654 21.3476 81.8454 20.7312 81.8454 20.0534Z" fill="white"/>
<path d="M89.7997 7.17738V26.4055H87.2233V7.17738H89.7997ZM93.6602 7.17738V10.2808H83.423V7.17738H93.6602Z" fill="white"/>
<path d="M99.5252 22.9851V12.1165H102.675V26.4055H99.7111L99.5252 22.9851ZM99.8751 20.0534L100.805 20.0269C100.805 20.9778 100.714 21.8625 100.531 22.6814C100.349 23.4913 100.076 24.1956 99.7111 24.7943C99.3465 25.3842 98.8872 25.8465 98.333 26.181C97.7787 26.5068 97.1263 26.6696 96.3752 26.6696C95.7992 26.6696 95.2669 26.5728 94.7784 26.379C94.2972 26.1766 93.8815 25.864 93.5316 25.4415C93.1889 25.0101 92.9191 24.4598 92.7222 23.7907C92.5326 23.1127 92.4378 22.2984 92.4378 21.3476V12.1165H95.5879V21.3739C95.5879 21.7965 95.6278 22.1532 95.708 22.4437C95.7955 22.7342 95.9159 22.9719 96.0691 23.1568C96.2221 23.3417 96.4008 23.4737 96.6049 23.553C96.8163 23.6322 97.0498 23.6718 97.305 23.6718C97.9539 23.6718 98.4643 23.5133 98.8361 23.1964C99.2152 22.8795 99.4814 22.448 99.6346 21.9022C99.7949 21.3476 99.8751 20.7312 99.8751 20.0534Z" fill="white"/>
<path d="M104.458 6.31623H107.423V22.8081L107.124 25.9835H104.458V6.31623ZM114.474 18.9156V19.1845C114.474 20.2174 114.385 21.1649 114.206 22.0271C114.035 22.8892 113.767 23.6361 113.404 24.2678C113.04 24.8909 112.587 25.3775 112.045 25.7274C111.509 26.0689 110.878 26.2397 110.151 26.2397C109.471 26.2397 108.881 26.0689 108.38 25.7274C107.886 25.386 107.47 24.9038 107.134 24.2806C106.798 23.6574 106.527 22.9276 106.321 22.0911C106.115 21.2545 105.961 20.3412 105.858 19.351V18.762C105.961 17.7718 106.115 16.8584 106.321 16.0218C106.527 15.1853 106.798 14.4555 107.134 13.8323C107.47 13.2092 107.886 12.7269 108.38 12.3854C108.874 12.044 109.457 11.8733 110.13 11.8733C110.864 11.8733 111.502 12.0482 112.045 12.3982C112.594 12.7397 113.047 13.2263 113.404 13.858C113.767 14.481 114.035 15.2237 114.206 16.0859C114.385 16.9395 114.474 17.8827 114.474 18.9156ZM111.509 19.1845V18.9156C111.509 18.3522 111.475 17.823 111.406 17.3279C111.345 16.8243 111.235 16.3847 111.077 16.009C110.919 15.6249 110.703 15.3219 110.428 15.1C110.161 14.878 109.814 14.767 109.389 14.767C108.984 14.767 108.641 14.8524 108.359 15.0231C108.078 15.1939 107.845 15.4329 107.659 15.7402C107.481 16.0475 107.347 16.4145 107.258 16.8413C107.168 17.2595 107.114 17.7206 107.093 18.2242V19.9016C107.114 20.5759 107.203 21.1734 107.361 21.6941C107.525 22.2063 107.772 22.6117 108.102 22.9105C108.438 23.2007 108.874 23.3459 109.409 23.3459C109.828 23.3459 110.174 23.2434 110.449 23.0386C110.724 22.8337 110.936 22.5435 111.087 22.1678C111.245 21.7923 111.355 21.3527 111.417 20.8491C111.478 20.3368 111.509 19.782 111.509 19.1845Z" fill="white"/>
<path d="M122.663 26.7035C121.636 26.7035 120.715 26.5041 119.9 26.1053C119.084 25.6967 118.391 25.1334 117.821 24.4157C117.258 23.6979 116.826 22.8655 116.525 21.9185C116.223 20.9615 116.072 19.9446 116.072 18.868V18.2699C116.072 17.0436 116.215 15.9221 116.5 14.9053C116.786 13.8885 117.193 13.0063 117.723 12.2586C118.261 11.5109 118.913 10.9378 119.679 10.539C120.446 10.1302 121.31 9.9259 122.272 9.9259C123.209 9.9259 124.041 10.1154 124.766 10.4941C125.492 10.8729 126.099 11.4112 126.588 12.109C127.085 12.8069 127.46 13.6443 127.713 14.6212C127.966 15.5883 128.092 16.6648 128.092 17.8512V19.6456H117.576V16.7745H124.632V16.4456C124.632 15.8473 124.542 15.3141 124.363 14.8455C124.191 14.367 123.931 13.9882 123.58 13.709C123.23 13.4299 122.781 13.2903 122.235 13.2903C121.77 13.2903 121.371 13.415 121.037 13.6642C120.703 13.9135 120.43 14.2623 120.218 14.711C120.014 15.1595 119.859 15.6878 119.753 16.296C119.655 16.8941 119.606 17.5521 119.606 18.2699V18.868C119.606 19.5159 119.679 20.1141 119.826 20.6624C119.981 21.2106 120.197 21.6842 120.474 22.0829C120.76 22.4817 121.102 22.7907 121.501 23.01C121.909 23.2293 122.37 23.339 122.883 23.339C123.519 23.339 124.11 23.1894 124.656 22.8904C125.21 22.5814 125.687 22.1179 126.087 21.4998L127.799 23.7726C127.521 24.2611 127.142 24.7296 126.661 25.1783C126.189 25.6268 125.618 25.9957 124.95 26.2848C124.281 26.5639 123.519 26.7035 122.663 26.7035Z" fill="white"/>
</g>
</g>
<defs>
<clipPath id="clip0_0_1">
<rect width="146" height="28.3597" fill="white"/>
</clipPath>
<clipPath id="clip1_0_1">
<rect width="77.5841" height="25.3212" fill="white" transform="translate(53.0732 6.27965)"/>
</clipPath>
</defs>
</svg>
