<svg width="20" height="21" viewBox="0 0 20 21" fill="none" xmlns="http://www.w3.org/2000/svg">
<g clip-path="url(#clip0_5_38)">
<path d="M19.0855 13.1189C19.1384 14.2677 18.5926 15.3254 17.742 15.7566C16.4084 16.4491 14.1612 17.4815 11.5568 18.2921C8.99444 19.0897 6.621 19.4955 5.1402 19.679C4.22652 19.7969 3.34412 19.1838 2.9552 18.1396C2.54525 16.991 2.01959 15.268 1.5778 13.075C1.13602 10.8821 0.946408 9.05451 0.872502 7.8013C0.819633 6.65251 1.36544 5.59482 2.216 5.16361C3.54961 4.47107 5.79682 3.43867 8.40119 2.62804C11.0056 1.8174 13.337 1.42464 14.8178 1.24117C15.7315 1.12324 16.6139 1.73638 17.0028 2.78057C17.4128 3.92919 17.9804 5.63908 18.4222 7.83205C18.822 10.0381 19.0116 11.8657 19.0855 13.1189Z" fill="#FF3D00"/>
<path d="M9.03503 14.638L7.56241 7.32812L13.3394 9.41411L9.03503 14.638Z" fill="white"/>
</g>
<defs>
<clipPath id="clip0_5_38">
<rect width="20" height="21" fill="white"/>
</clipPath>
</defs>
</svg>
