<svg width="16" height="17" viewBox="0 0 16 17" fill="none" xmlns="http://www.w3.org/2000/svg">
<path d="M11.3292 1.28923L5.23402 4.17316C3.88634 4.81081 3.23577 6.36156 3.72511 7.76989C4.17705 9.07055 3.65862 10.5102 2.4812 11.2241L1.68511 11.7068C0.0643594 12.6895 0.136656 15.065 1.81417 15.9474C2.47738 16.2962 3.2642 16.3205 3.94768 16.0133L11.8307 12.47C13.0646 11.9154 13.6258 10.4738 13.0918 9.23089L12.9645 8.9346C12.4923 7.83542 13.0044 6.56185 14.1062 6.0956C15.1665 5.64685 15.6878 4.44463 15.2905 3.36392L15.094 2.82934C14.5354 1.30951 12.7929 0.596697 11.3292 1.28923Z" stroke="white"/>
</svg>
